<svg xmlns="http://www.w3.org/2000/svg" viewBox="0 0 53 40.6"><defs><style>.cls-1{fill:#ef5608;}</style></defs><title>Asset 9</title><g id="Layer_2" data-name="Layer 2"><g id="Layer_3" data-name="Layer 3"><path class="cls-1" d="M49.91,9.23A17.66,17.66,0,0,0,47,6.13c-.06-.23-.12-.47-.2-.74C45.92,2.7,43.86-.38,42.53,0s-1.71,2.2-1.4,3.66a11.89,11.89,0,0,0,1.4,3.39c-.78.74-1.24,1.81-2,2.71a8.53,8.53,0,0,1-5.76,2.82c-4,.39-7.57-1.44-11.62-.69a16.57,16.57,0,0,0-8.63,4.65c-2,2.05-3.78,4.07-6.55,5.24-2.48,1.06-4.34.4-3.74,1.73s4.92.34,6,0c4.28-1.56,6.72-5.7,11-7.3s8,.14,12.34.27c3.35.1,8.74.72,10.76-2.87a7.81,7.81,0,0,1-1.21-2.81,11.36,11.36,0,0,0,2.6,3.31c2.68,2.32,5.79,3.12,7,1.77S52.09,12,49.91,9.23Z"/><path class="cls-1" d="M31.33,19.15A10.23,10.23,0,0,0,30.56,18a1.76,1.76,0,0,0-1.09-.64c-2.5-.41-4.94-.71-7.63.3a11.84,11.84,0,0,0-1.2.54h0c.12.07,1,.42,1,.43A9.93,9.93,0,0,1,23.9,20a3.22,3.22,0,0,1,1.18,1.72,3.14,3.14,0,0,1-.14,2,7.78,7.78,0,0,1-1.37,2.15,22.1,22.1,0,0,1-4.32,3.67,52.45,52.45,0,0,1-4.52,2.71.66.66,0,0,0-.35.75.64.64,0,0,0,.78.45c.27-.08.56-.15.84-.21a13.92,13.92,0,0,1,1.44-.23,13.05,13.05,0,0,1,2.93,0,9.57,9.57,0,0,1,2.87,1c.45.2.52-.1.31-.57a2.78,2.78,0,0,0-2-1.58l-.65-.11c-.5-.07-.55-.64-.17-1a4.15,4.15,0,0,1,1.13-.61c3.12-1.28,3.92-.72,5.87-1.65a7.8,7.8,0,0,0,3.68-3.75A6.8,6.8,0,0,0,32,23a5.78,5.78,0,0,0,0-2A6.37,6.37,0,0,0,31.33,19.15Z"/><path class="cls-1" d="M0,40.6l1.86-1.08A27.6,27.6,0,0,1,22.3,36.6l.91.21S10.78,36.77,0,40.6Z"/></g></g></svg>